<svg xmlns="http://www.w3.org/2000/svg" viewBox="0 0 750 500"><g id="freepik--Chart--inject-60"><rect x="191.04" y="302.94" width="31.65" height="68.38" style="fill:#EBC35B"></rect><g style="opacity:0.1"><rect x="215.45" y="302.94" width="7.25" height="68.38"></rect></g><rect x="232.74" y="277.09" width="31.65" height="94.23" style="fill:#EBC35B"></rect><g style="opacity:0.1"><rect x="257.15" y="277.09" width="7.25" height="94.23"></rect></g><rect x="149.43" y="318.34" width="31.65" height="52.98" style="fill:#EBC35B"></rect><g style="opacity:0.1"><rect x="173.83" y="318.34" width="7.25" height="52.98"></rect></g><rect x="274.45" y="242.68" width="31.65" height="128.64" style="fill:#EBC35B"></rect><g style="opacity:0.1"><rect x="298.85" y="242.68" width="7.25" height="128.64"></rect></g><path d="M138.21,350.78V337.59S253.5,330,300.09,231.68l4.63.92S273.79,333.41,138.21,350.78Z" style="fill:#37474f"></path><polygon points="309.04 235.91 294.48 232.19 306.55 222.93 309.04 235.91" style="fill:#37474f"></polygon></g><g id="freepik--character-1--inject-60"><path d="M238.73,416.69c-2,.66-60.71.15-62.94-1.29-.84-.54-1.27-9.08-1.48-19.43-.05-2.23-4.48-38.22-4.48-38.22l39.22.23,3.08,38.22s22.37,10.24,24.64,12.07S240.79,416,238.73,416.69Z" style="fill: rgb(173, 99, 89);"></path><path d="M238.73,416.69c-2,.66-60.71.15-62.94-1.29-.66-.43-1.07-5.83-1.32-13.18,10,1.51,44,6.55,51.54,5.81,5.11-.5,1.82-3.65-1.85-6.22,5.71,2.72,11.52,5.58,12.61,6.46C239,410.11,240.79,416,238.73,416.69Z" style="fill:#263238"></path><path d="M114,212.42s44.58,78,45.73,83.48c1.78,8.38,12.11,99.72,12.11,99.72l43.88-.27S207,313.8,199.58,289.73c-4.06-13.14-25.42-48.76-35.43-66.35-.89-1.57-.63-8.76-.63-8.76Z" style="fill:#455a64"></path><path d="M211.49,388c-6.81-.13-27.4-.7-36.47,0-.07,0-.07.12,0,.13,3.11.48,29.66.16,36.47,0A.1.1,0,1,0,211.49,388Z" style="fill:#263238"></path><path d="M121.67,219.62c2.93,4.72,6,9.34,9,14s6,9.36,8.92,14.07q8.82,14.13,17.23,28.5a86.62,86.62,0,0,1,6.93,13.9A84.28,84.28,0,0,1,167.58,305c.87,5.1,1.42,10.24,1.93,15.38q.83,8.22,1.63,16.42c1.11,11.2,3.63,31.08,4.75,42.28.13,1.37.26,2.75.38,4.12,0,.2-.34.24-.36,0-1.26-11.13-3.69-31-4.82-42.12q-.85-8.31-1.69-16.64c-.52-5.16-1-10.32-1.75-15.46a101.91,101.91,0,0,0-3.16-15,71.24,71.24,0,0,0-6.37-14.58c-5.37-9.54-11.07-18.92-16.77-28.28s-11.54-18.84-17.56-28.12c-.74-1.15-1.49-2.28-2.27-3.41C121.47,219.61,121.62,219.53,121.67,219.62Z" style="fill:#263238"></path><path d="M131.63,419.87c-2.16-.16-57.66-23.44-59.19-25.61a.77.77,0,0,1-.08-.41c0-1.92,4-8.58,7.32-17.35.21-.56,19.26-32.74,19.26-32.74l36.28,14.93-20.57,32.2s16.9,17.89,18.31,20.44S133.78,420,131.63,419.87Z" style="fill: rgb(173, 99, 89);"></path><path d="M131.63,419.87c-2.16-.16-57.66-23.44-59.19-25.61a.77.77,0,0,1-.08-.41c0-1.54,2.59-6.16,5.33-12.47,10,7.37,41.34,26.85,47.24,27.27,3.11.22.53-4.92-1.52-8.35,4.36,4.75,8.86,9.77,9.55,11C134.36,413.88,133.78,420,131.63,419.87Z" style="fill:#263238"></path><path d="M117.92,391.7l-40.6-17s53.87-82.31,54.31-87.84c.39-4.9-21.31-47.86-22-60.31-.78-13.44,5.81-23.75,13-30.11l40.93,18.16s-3.58,7.31-10.62,11.18c0,0,21,49.6,19.57,64.76S117.92,391.7,117.92,391.7Z" style="fill:#455a64"></path><path d="M119.83,384c-5.87-2.61-4.15-1.94-10-4.49-2.88-1.24-21.86-9.41-24.76-10.09-.06,0-.1.08,0,.12,2.52,1.58,21.64,9.41,24.55,10.6,6,2.43,4.27,1.67,10.24,4A.1.1,0,0,0,119.83,384Z" style="fill:#263238"></path><path d="M159.84,225A80,80,0,0,0,147,229a.14.14,0,0,0,.09.26c4.32-1.21,8.71-2.33,12.95-3.76A.26.26,0,0,0,159.84,225Z" style="fill:#263238"></path><path d="M154.86,223.19a17.88,17.88,0,0,0-1.1,2.24,4.9,4.9,0,0,0-.58,1.88c0,.13.17.16.25.09a7.12,7.12,0,0,0,1.08-1.77c.36-.69.75-1.38,1.09-2.08C155.83,223.09,155.13,222.74,154.86,223.19Z" style="fill:#263238"></path><path d="M155.42,219.23c.27-.64.54-1.28.82-1.92s.62-1.32.86-2c0-.1.21,0,.16.08-.26.65-.44,1.34-.65,2s-.44,1.33-.67,2c-.43,1.24-.95,2.46-1.5,3.65a4.53,4.53,0,0,0,2-.33,3.69,3.69,0,0,0,1.45-1.69c.38-.72.73-1.46,1.12-2.17a15.67,15.67,0,0,0,1.2-2.43c0-.11.2,0,.16.07a28.45,28.45,0,0,1-2.31,5.17c-.39.64-.72,1.3-1.43,1.54a5.76,5.76,0,0,1-2.41.13c-.1,0-.22,0-.19-.15C154.46,221.85,154.9,220.51,155.42,219.23Z" style="fill:#263238"></path><path d="M153.53,227.41c1.46,3.19,2.74,6.37,4.1,9.55s2.57,6.24,3.77,9.4c2.43,6.37,4.6,12.86,6.5,19.42q1.4,4.86,2.56,9.8a70.63,70.63,0,0,1,1.83,10,26.39,26.39,0,0,1-1,10c-1,3.31-6.4,14.53-7.93,17.62-.94,1.89-1.25,1.63-.8.67,1.29-2.7,8.73-18.29,9.12-24.75.2-3.34-1.21-8.07-1.92-11.33s-1.56-6.62-2.47-9.91c-1.79-6.46-3.93-12.8-6.14-19.13-1.24-3.55-2.57-7.06-3.83-10.6s-2.57-6.78-4-10.68A.09.09,0,0,1,153.53,227.41Z" style="fill:#263238"></path><path d="M122.67,216.55c.74-.26,1.75.2,2.49.34a21.65,21.65,0,0,0,2.89.32,21.12,21.12,0,0,0,2.87-.06,6.3,6.3,0,0,0,2.76-.69,13.78,13.78,0,0,0,3.54-3.68A20.7,20.7,0,0,0,140,208c0-.1.19,0,.16.07-.32,1-.56,2-1,2.91a18.21,18.21,0,0,1-1.37,2.58,11.29,11.29,0,0,1-3.69,4.07c-1.71.95-3.89.86-5.77.73a20.86,20.86,0,0,1-3.25-.47c-.77-.17-2.07-.31-2.55-1A.24.24,0,0,1,122.67,216.55Z" style="fill:#263238"></path><path d="M89.06,367.08c6.83-10.06,35.59-59.56,42-69.95a43.55,43.55,0,0,0,4.3-7.72c1.09-3,.52-5.93-.39-8.89a150.71,150.71,0,0,0-6.07-15.92c-2.29-5.21-4.76-10.35-7.19-15.5a148.58,148.58,0,0,1-6.79-15.6,26.51,26.51,0,0,1-.91-15.68c1.43-5.23,4.44-9.91,7.58-14.27.83-1.15,1.67-2.28,2.5-3.43.06-.09.19,0,.13.11-3.45,4.54-6.83,9.35-8.88,14.7a25.64,25.64,0,0,0-1.79,8.28,27,27,0,0,0,1.22,8.51c1.59,5.36,4.13,10.44,6.5,15.49s4.9,10.28,7.24,15.48a163.82,163.82,0,0,1,6.31,16c.8,2.42,1.69,5,1.6,7.55-.1,2.84-1.48,5.37-2.91,7.75-6.23,10.33-34.84,59.47-41.64,69.5q-1.27,1.9-2.57,3.79C89.18,367.43,89,367.24,89.06,367.08Z" style="fill:#263238"></path><path d="M126.56,118.09c-8.62,7.39-6.22,18.16-9.82,24-2.2,3.57-9.37,7.35-10.79,11.47-2.35,6.77,3.39,9.2,2.11,12.87-1.82,5.22-8.8,4.81-10,13.34s8.12,17.59,30.38,20.05,34.5-5.7,35.3-12.93-6.61-9.64-7.12-15c-.32-3.46,4.25-5.86,4.49-12.21s-6-8.42-6.85-13.81,2-18.51-6-25.2S130.82,114.44,126.56,118.09Z" style="fill:#263238"></path><path d="M127.56,118.28a18.48,18.48,0,0,0-5.72,6.6,40.2,40.2,0,0,0-3.18,8.75,24.4,24.4,0,0,1-1.73,5.24,13.48,13.48,0,0,1-3,3.69c-2.41,2.18-5.28,3.84-7.45,6.28s-3.64,5.42-2.82,8.58c.44,1.72,1.58,3.12,2.28,4.73s.94,3.4-.37,4.66c-1.11,1.08-2.72,1.58-4,2.46a14.09,14.09,0,0,0-3.25,3.15,10.94,10.94,0,0,0-2,8.56c1.31,6.93,7.81,10.87,13.81,13.35l2.52,1c.13.05.24-.14.11-.2-6-2.69-13-5.86-15.32-12.59a10.18,10.18,0,0,1,1-8.93,12.87,12.87,0,0,1,3.19-3.35c1.21-.89,2.6-1.44,3.84-2.29a4.11,4.11,0,0,0,1.89-3.66,10.05,10.05,0,0,0-1.66-4.43,8.2,8.2,0,0,1-1.42-4.66,9,9,0,0,1,1.78-4.45c1.88-2.65,4.65-4.39,7.14-6.4a15.14,15.14,0,0,0,5.42-7.5c.46-1.59.74-3.22,1.14-4.82a42,42,0,0,1,1.33-4.4,21,21,0,0,1,4.71-7.76,11.55,11.55,0,0,1,1.84-1.51C127.71,118.35,127.64,118.23,127.56,118.28Z" style="fill:#263238"></path><path d="M164.68,181.59a8.38,8.38,0,0,0-1.55-3.24c-.77-1-1.71-1.81-2.56-2.71a6.23,6.23,0,0,1-1.82-3,6,6,0,0,1,1-4,29.56,29.56,0,0,0,2-3.88,13.91,13.91,0,0,0-1.39-12.43c-.76-1.24-1.62-2.42-2.39-3.66a18,18,0,0,1-2-4.33c-1-3.35-1.22-6.88-2-10.28a53.31,53.31,0,0,0-3.61-10.1c0-.08-.16,0-.12.08a46.43,46.43,0,0,1,3.16,9.12c.71,3,1,6,1.51,9A21.65,21.65,0,0,0,156,146.5a22.62,22.62,0,0,0,1.93,3.72c1.5,2.45,3.06,4.88,3.47,7.78a13.69,13.69,0,0,1-1.43,8.34c-1.17,2.21-2.81,4.65-1.79,7.24.87,2.2,3,3.51,4.35,5.33a8.76,8.76,0,0,1,1.5,7c-1.19,6.23-7.44,9.32-13.29,9.63a.15.15,0,0,0,0,.29c5.08-.06,10.61-2.3,13-7.06A10.87,10.87,0,0,0,164.68,181.59Z" style="fill:#263238"></path><path d="M151.34,164.9c14,12.69,32.27,26.06,41.84,23.41,8.66-2.39,20.64-13.42,33.73-25.33,2.6-2.36-16.85-21.61-19.36-18.82-5,5.51-15,19.41-18.92,21.11C186.94,166,167,157.5,154,153.43,138.3,148.48,145.78,159.85,151.34,164.9Z" style="fill: rgb(173, 99, 89);"></path><path d="M237.43,158.45c-4.56,3.35-12,7.86-15.37,8.39-3.17.5-16.66-19.93-14.64-22.53,6.27-8.11,18.83-14,24.6-13.76S242.15,155,237.43,158.45Z" style="fill: rgb(173, 99, 89);"></path><path d="M89,338.71a36.73,36.73,0,0,1-16.89-4.31l.48-.88c6,3.25,15.58,5.76,24.43,3a23.09,23.09,0,0,0,14-12.12c6.06-11.79,19.64-60.55,27.75-89.68,4.59-16.49,6.82-24.45,7.33-25.17,1.69-2.42,92.59-82.45,94.43-83.14s269.11-71.49,280.48-74.5l.26,1c-2.78.74-277.88,73.6-280.39,74.47-2.49,1.31-92.09,80.24-94,82.78-.47.78-3.58,11.94-7.18,24.86C131,266.06,118,313,111.84,324.88c-3.29,6.4-8.19,10.65-14.57,12.62A28.1,28.1,0,0,1,89,338.71Z" style="fill:#263238"></path><path d="M223.07,132c-1.14,2.76,2.78,2.53,2.78,2.53s-5.57,1.7-5.65,5,4.66,2.74,5,2.72c-.3.09-5.37,1.78-5.1,5.12s4.94,2.2,5.24,2.12c-.25.17-3.51,2.53-2.74,5,1.34,4.28,9.85-1.52,13.38-.69,0,0,1.09,4.73,1.11,4.91,0,0,6.4-3.93,7.25-8.76a3.12,3.12,0,0,0-1.83-3.46s2.83-1.43,2.71-4.07c-.07-1.35-2.29-2.44-2.29-2.44a3.93,3.93,0,0,0,2-3.58c-.2-1.87-2.4-2.67-2.4-2.67s1.59-2.19.77-4C241.62,126,225.54,126,223.07,132Z" style="fill: rgb(173, 99, 89);"></path><path d="M242.18,133.54a0,0,0,1,0,0-.08,28,28,0,0,0-16.56,1c-.16.07-.12.37.07.33A57.39,57.39,0,0,1,242.18,133.54Z" style="fill:#263238"></path><path d="M243,139.94c.06,0,.07-.1,0-.11a26.16,26.16,0,0,0-18,2.25c-.19.1-.25.39,0,.28C228.84,140.59,237.83,139.51,243,139.94Z" style="fill:#263238"></path><path d="M225,149.82c5.44-2.76,11.21-3.5,17.25-3.4.08,0,.08-.11,0-.13-2.94-.85-6.8-.51-9.78,0a15.93,15.93,0,0,0-7.58,3.33C224.84,149.7,224.91,149.88,225,149.82Z" style="fill:#263238"></path><path d="M225.85,134.5a17.91,17.91,0,0,0-3,1.55,6.19,6.19,0,0,0-2.24,2.28,2,2,0,0,0-.14,1.44,3.1,3.1,0,0,0,.77,1.28,3.64,3.64,0,0,0,2.82.78l2.44-.27-2.2,1.1a10,10,0,0,0-2.66,1.88,3.58,3.58,0,0,0-1.22,2.68,2,2,0,0,0,1.64,2,6.22,6.22,0,0,0,3.1-.21l2.79-.83-2.35,1.69a8.87,8.87,0,0,0-1.77,1.64,3.82,3.82,0,0,0-1,2,1.84,1.84,0,0,0,.84,1.75,4.12,4.12,0,0,0,2.27.31,31.13,31.13,0,0,0,4.94-1.06c.82-.21,1.65-.43,2.49-.61a6.1,6.1,0,0,1,2.55-.13,6.41,6.41,0,0,0-2.49.36c-.82.24-1.62.52-2.43.79a26.69,26.69,0,0,1-5,1.35,4.77,4.77,0,0,1-2.74-.28,2.66,2.66,0,0,1-1.35-2.55,4.84,4.84,0,0,1,1.13-2.55,10.3,10.3,0,0,1,1.94-1.85l.44.86a7.21,7.21,0,0,1-3.67.29,3,3,0,0,1-1.71-1.07,3.3,3.3,0,0,1-.66-1.88,4.53,4.53,0,0,1,1.54-3.39,11,11,0,0,1,2.95-2l.24.83a4.23,4.23,0,0,1-3.42-1.14,3.61,3.61,0,0,1-.87-1.62,2.62,2.62,0,0,1,.24-1.83,6.36,6.36,0,0,1,2.58-2.31A15.28,15.28,0,0,1,225.85,134.5Z" style="fill:#263238"></path><path d="M209.08,142.36s13.69-22.16,19.43-13.43c1.71,2.59,5.63,15.28,3.1,16.11-3.27,1.08-5.89-3.91-7-7.3,0,0-3.16,7.62-9.12,7A14,14,0,0,1,209.08,142.36Z" style="fill: rgb(173, 99, 89);"></path><path d="M228,128.23a12.64,12.64,0,0,1,1.93,3.11,30.32,30.32,0,0,1,1.32,3.43,43.17,43.17,0,0,1,1.66,7.17,7.07,7.07,0,0,1,0,1.95,2.49,2.49,0,0,1-.41,1,1.6,1.6,0,0,1-.42.45,2,2,0,0,1-.54.28,3.13,3.13,0,0,1-2.14-.11,5.87,5.87,0,0,1-1.66-1.13,11.28,11.28,0,0,1-2.17-3.1,26.68,26.68,0,0,1-1.4-3.44h.8a14.64,14.64,0,0,1-1.41,2.44,13.15,13.15,0,0,1-1.82,2.12,9.66,9.66,0,0,1-2.3,1.57,7.17,7.17,0,0,1-2.66.72,8.21,8.21,0,0,0,2.52-1,9.87,9.87,0,0,0,2.06-1.7A12.9,12.9,0,0,0,223,140a14.59,14.59,0,0,0,1.19-2.37l.39-1,.41,1a27.44,27.44,0,0,0,1.44,3.27,10.89,10.89,0,0,0,2,2.81,3,3,0,0,0,2.77,1c.8-.2.84-1.53.74-2.67s-.32-2.36-.54-3.54-.47-2.37-.78-3.54A23.28,23.28,0,0,0,228,128.23Z" style="fill:#263238"></path><path d="M174.49,184.51,182,162.78s-18.39-8.41-28.92-10.67S140,154.29,149.39,164,174.49,184.51,174.49,184.51Z" style="fill:#EBC35B"></path><path d="M178.18,162.26c-1.34,2.81-2.43,5.76-3.52,8.68s-2.08,5.82-2.93,8.79c0,.05.08.09.1,0,1.2-2.88,2.31-5.8,3.38-8.73s2.18-5.78,3.08-8.73C178.31,162.24,178.21,162.2,178.18,162.26Z" style="fill:#263238"></path><path d="M178.36,173.36l-3.87,11.15s-15.68-10.88-25.1-20.55c-3.25-3.33-5.06-6-5.61-8.07Z" style="opacity:0.1"></path><path d="M164.27,215.26l-52.88-9.17s12.8-37.47,24-50.9c5.48-6.59,13.55-3.91,16.85-1.05,1.05.91,11.36,15.15,12.38,21.07.88,5.24-2.69,10.83-2.69,10.83Z" style="fill:#EBC35B"></path><path d="M153.45,184a49,49,0,0,0-7.12,1.18c-1.16.3-2.29.65-3.43,1-.57.19-1.14.36-1.71.52a7.69,7.69,0,0,1-1.83.35,0,0,0,1,0,0,.09,14.94,14.94,0,0,0,1.77,0,12.13,12.13,0,0,0,1.68-.32c1.18-.29,2.34-.64,3.52-.94,2.37-.62,4.74-1.23,7.15-1.68C153.59,184.13,153.57,183.94,153.45,184Z" style="fill:#263238"></path><path d="M159.39,186.07a51.51,51.51,0,0,0-5.95-.27c-1,0-2,.08-3,.18l-1.42.16c-.52.07-1,.21-1.55.26-.05,0-.05.1,0,.09.49,0,1,0,1.48,0l1.48,0,3-.07c2-.07,4-.12,5.94-.13C159.5,186.23,159.49,186.08,159.39,186.07Z" style="fill:#263238"></path><path d="M129.41,158.54c-20.19,17-39.47,54.87-31.2,59.56,7.55,4.28,33.05,4,43.67,2.68,3.12-.39-.35-24.61-3.69-24.2-4,.49-14.23.8-14.63.73-.86-.16,11.91-26.72,16-36.49C145.24,147.21,137,152.16,129.41,158.54Z" style="fill: rgb(173, 99, 89);"></path><path d="M170.09,194.69a3.74,3.74,0,0,1-.79,4.2,5.59,5.59,0,0,1,2.35,3c.62,2.2-2.56,4.14-2.56,4.14a6.84,6.84,0,0,1,2,3.52c.38,2.17-2.55,4.58-2.55,4.58a6,6,0,0,1-.21,4.19c-1.67,3.48-7.52,4.13-11.24,4.59s-14.68-1.74-16.81-1.94l-3.13-23.83s16.09-6.78,20.53-6.7C161.41,190.48,168.79,192.07,170.09,194.69Z" style="fill: rgb(173, 99, 89);"></path><path d="M169.09,198.53c-4-1-8-.84-12.07-.87a.07.07,0,0,0,0,.14c4,0,8,.77,12,.92A.1.1,0,0,0,169.09,198.53Z" style="fill:#263238"></path><path d="M169,205.69a10.84,10.84,0,0,0-2.79-.07c-1,0-2,.1-3,.17-2,.15-3.95.34-5.91.59-.09,0-.09.15,0,.14,2-.14,3.94-.26,5.91-.32l3-.07A12.39,12.39,0,0,0,169,206,.14.14,0,0,0,169,205.69Z" style="fill:#263238"></path><path d="M168.44,214.1a7.63,7.63,0,0,0-2.52.06l-2.69.25c-1.8.15-3.6.3-5.41.39a.07.07,0,0,0,0,.14c1.84-.08,3.67-.14,5.5-.24l2.7-.16a6.89,6.89,0,0,0,2.43-.35A0,0,0,0,0,168.44,214.1Z" style="fill:#263238"></path><path d="M107.72,180.05l21.14,9.08s9.69-17.74,12.71-28.08-1.24-13.28-11.56-4.57S107.72,180.05,107.72,180.05Z" style="fill:#EBC35B"></path><path d="M129.61,184.6c-2.71-1.53-5.57-2.84-8.4-4.13s-5.66-2.49-8.56-3.55a.05.05,0,0,0,0,.1c2.78,1.4,5.61,2.72,8.46,4s5.62,2.58,8.49,3.69C129.62,184.73,129.66,184.64,129.61,184.6Z" style="fill:#263238"></path><path d="M138.8,168.82c-1.36,3.53-2.9,7-4.52,10.37-.82,1.7-1.66,3.39-2.54,5.06s-1.78,3.33-2.79,4.93l0,.09-.08,0c-.51-.25-1-.5-1.5-.76l1.58.56-.14.05,2.4-5.12,2.45-5.09c.83-1.69,1.66-3.38,2.53-5.05S137.87,170.47,138.8,168.82Z" style="fill:#263238"></path><path d="M134.8,177.32a17.23,17.23,0,0,1,1.49-2.62,16.25,16.25,0,0,1,1.9-2.33A15.21,15.21,0,0,1,136.7,175,16.21,16.21,0,0,1,134.8,177.32Z" style="fill:#263238"></path><path d="M139.31,154.44c.49.81,6.59,5.1,10.53,3.57,1.29-.5-1.13-7.63-1.13-7.63l-.06-.57-.81-7.94-10.55-2.67-1.5-.32s.37,2.16.85,4.84c0,.13.05.25.07.39s0,.29.07.43c.07.41.14.82.22,1.22s.11.61.19.94.13.64.2,1A50.33,50.33,0,0,0,139.31,154.44Z" style="fill: rgb(173, 99, 89);"></path><path d="M136.64,143.72a16,16,0,0,0,12,6.09l-.81-7.94-10.55-2.67-1.5-.32S136.16,141,136.64,143.72Z" style="fill:#263238"></path><path d="M155.1,126.17c5.93,12.7-1,17.69-3.75,19-2.49,1.16-11.1,4.78-18.31-7.24s-3.17-18.79,2.38-21.73S149.18,113.47,155.1,126.17Z" style="fill: rgb(173, 99, 89);"></path><path d="M149.86,123.4c-.31.1-.62.15-.94.22a1.59,1.59,0,0,1-1,0,.5.5,0,0,1-.25-.55,1.22,1.22,0,0,1,1-.78,1.77,1.77,0,0,1,1.3.1A.53.53,0,0,1,149.86,123.4Z" style="fill:#263238"></path><path d="M143.09,129.81a8.83,8.83,0,0,0,.9-.35,1.53,1.53,0,0,0,.85-.54.49.49,0,0,0-.1-.6,1.24,1.24,0,0,0-1.25-.08,1.78,1.78,0,0,0-1,.82A.53.53,0,0,0,143.09,129.81Z" style="fill:#263238"></path><path d="M145.8,130.53s-.05.07,0,.11c.45.84.83,1.88.19,2.55,0,0,0,.06,0,0C146.87,132.63,146.36,131.26,145.8,130.53Z" style="fill:#263238"></path><path d="M144.59,130c-1.42.58-.16,3.39,1.16,2.85S145.79,129.53,144.59,130Z" style="fill:#263238"></path><path d="M144.11,130.41c-.18.27-.29.66-.57.82s-.72,0-1.07-.17c0,0-.05,0,0,.05.24.55.69,1,1.31.83a1.15,1.15,0,0,0,.61-1.41C144.33,130.41,144.18,130.31,144.11,130.41Z" style="fill:#263238"></path><path d="M150.45,128s.08,0,.1,0c.35.88.91,1.84,1.83,1.78a0,0,0,0,1,0,.05C151.37,130.16,150.64,128.88,150.45,128Z" style="fill:#263238"></path><path d="M150.83,126.73c1.36-.72,2.7,2,1.45,2.72S149.69,127.34,150.83,126.73Z" style="fill:#263238"></path><path d="M151.49,126.63c.29,0,.64.21.91.1s.39-.54.45-.92c0,0,0,0,.05,0,.27.52.37,1.16-.09,1.5s-1,0-1.36-.43C151.37,126.8,151.38,126.62,151.49,126.63Z" style="fill:#263238"></path><path d="M148.8,137.65a1.49,1.49,0,0,0,1,.22,2.43,2.43,0,0,0,.86-.6s.07,0,.06,0a1.3,1.3,0,0,1-.94.93,1,1,0,0,1-1-.51C148.7,137.67,148.76,137.63,148.8,137.65Z" style="fill:#263238"></path><path d="M151,132.84s.77,1.21,1.06,1.82c0,.06-.11.15-.31.26,0,0,0,0,0,0a3.18,3.18,0,0,1-3.32.22c-.07,0,0-.13.06-.12a4.8,4.8,0,0,0,3-.47c0-.19-1.41-2-1.31-2.08a6.06,6.06,0,0,1,1.53-.33c-1.55-2.57-3.49-4.87-5-7.45a.09.09,0,0,1,.14-.11,48.66,48.66,0,0,1,5.72,7.8C152.74,132.71,151.27,132.83,151,132.84Z" style="fill:#263238"></path><path d="M151.26,135a3.58,3.58,0,0,1-.86,1.6,1.56,1.56,0,0,1-.86.45c-.72.12-1-.46-1.11-1a4,4,0,0,1-.06-.91A4.65,4.65,0,0,0,151.26,135Z" style="fill:#263238"></path><path d="M150.4,136.55a1.56,1.56,0,0,1-.86.45c-.72.12-1-.46-1.11-1A1.64,1.64,0,0,1,150.4,136.55Z" style="fill:#ff9cbd"></path><path d="M134.43,138.58c3-1.73-1-11.74-1.54-13,.36.76,2.3,4.74,2.68,4.74a3.06,3.06,0,0,0,.88-.69h0a10.3,10.3,0,0,1-.62-1.47c-.09-.23.33.43.89,1.22l.49-.46a12.82,12.82,0,0,1-1.26-3.14c-.1-.42.87,1.2,2,2.47a42.12,42.12,0,0,1,7.39-5.67c.76-.43,1.43-.77,2-1-.61-1.17-1.38-2.33-1.16-2.11a12.72,12.72,0,0,1,1.61,1.9c.33-.15.64-.28.92-.39-.78-1.68-2.92-3.89-2.45-3.63a13.23,13.23,0,0,1,3.69,3.21c1.23-.36,1.65-.31,1.53-.61a14,14,0,0,0-8.2-7c-5.79-1.63-14.39,2.14-15.82,10,0,0-3.65,5.55-2.24,9.62S132.67,139.58,134.43,138.58Z" style="fill:#263238"></path><path d="M135.51,137.93s-4.37-3.06-5.86-1.36,2.84,6.87,5.33,6.89a2.37,2.37,0,0,0,2.55-2.29Z" style="fill: rgb(173, 99, 89);"></path><path d="M130.93,138s0,.06,0,.06a6,6,0,0,1,4.19,2.46,1.31,1.31,0,0,0-2,.34s0,.09.07.07a1.44,1.44,0,0,1,1.68-.08,6.8,6.8,0,0,1,1.17,1c.12.11.34-.05.23-.19l0,0C135.62,139.63,133.1,137.45,130.93,138Z" style="fill:#263238"></path><path d="M148.78,150.38l-.92,6.84-9.72-5.9-1.55,3.08s10.73,10.57,10.63,10l1.2-6,4.64,2.79-2.67-9.28Z" style="fill:#ebebeb"></path><path d="M152,156.52c-.49-1.52-.95-3.06-1.51-4.55,0-.06-.11-.06-.11,0,.07,1.57,2,7.36,2.34,8.77h0c-.2-.12-4.26-2.41-4.28-2.35-.34,1-1.23,5.37-1.27,5.75-1.69-1.68-8.75-8.21-10.64-9.73a.06.06,0,0,0-.08.08c1.59,1.83,10.76,10.48,10.85,10.43a63.75,63.75,0,0,0,1.24-6.34,42.19,42.19,0,0,0,4.87,3A50.89,50.89,0,0,0,152,156.52Z" style="fill:#263238"></path></g><g id="freepik--speech-bubble--inject-60"><path d="M165,115a13.38,13.38,0,0,1-2.28-7.38c0-9.34,10.25-16.91,22.9-16.91s22.89,7.57,22.89,16.91-10.25,16.92-22.89,16.92a27.55,27.55,0,0,1-15.8-4.68l-7.89,2Z" style="fill:#EBC35B"></path><path d="M193.87,107.64a2.38,2.38,0,1,0,2.38-2.37A2.39,2.39,0,0,0,193.87,107.64Z" style="fill:#263238"></path><circle cx="185.64" cy="107.64" r="2.37" style="fill:#263238"></circle><circle cx="175.02" cy="107.64" r="2.37" style="fill:#263238"></circle></g><g id="freepik--Arrow--inject-60"><path d="M318.55,388.31,237.86,402.9c-43.39,7.26-95.19,9.28-170.24,1.59l81.11-13.56C214.34,396.35,275.16,395.56,318.55,388.31Z" style="fill:#EBC35B"></path><path d="M323.58,414.67,237,428.92c29.42-4.92,60.14-13.38,81.88-24.08,120.6-58.31,171.31-260.27,172-262.19H588c-.72,1.92-12.16,35-60.59,127.24-29.95,54.82-74.22,95.2-127.43,121.39C378.22,402,353,409.75,323.58,414.67Z" style="fill:#EBC35B"></path><g style="opacity:0.30000000000000004"><path d="M323.58,414.67,237,428.92c29.42-4.92,60.14-13.38,81.88-24.08,120.6-58.31,171.31-260.27,172-262.19H588c-.72,1.92-12.16,35-60.59,127.24-29.95,54.82-74.22,95.2-127.43,121.39C378.22,402,353,409.75,323.58,414.67Z" style="fill:#fff"></path></g><path d="M468.33,132.52l22.56,10.13c-.73,1.92-48.5,200.44-172,262.19-75.29,37.64-139.68,35.38-250.45,26.23l-.78-26.58c107.61,8.89,190.18,2.38,241.67-24.57C425.48,319.1,468.16,133,468.33,132.52Z" style="fill:#EBC35B"></path><g style="opacity:0.1"><path d="M468.33,132.52l22.56,10.13c-.73,1.92-48.5,200.44-172,262.19-75.29,37.64-139.68,35.38-250.45,26.23l-.78-26.58c107.61,8.89,190.18,2.38,241.67-24.57C425.48,319.1,468.16,133,468.33,132.52Z"></path></g><polygon points="468.33 132.52 572.98 132.52 587.98 142.65 490.89 142.65 468.33 132.52" style="fill:#EBC35B"></polygon><polygon points="548.03 67.47 616.08 153.8 455.71 153.37 548.03 67.47" style="fill:#EBC35B"></polygon><g style="opacity:0.30000000000000004"><polygon points="548.03 67.47 616.08 153.8 455.71 153.37 548.03 67.47" style="fill:#fff"></polygon></g><polygon points="455.71 153.37 428.13 132.21 520.45 46.31 548.03 67.47 455.71 153.37" style="fill:#EBC35B"></polygon><g style="opacity:0.1"><polygon points="455.71 153.37 428.13 132.21 520.45 46.31 548.03 67.47 455.71 153.37"></polygon></g></g><g id="freepik--character-2--inject-60"><path d="M499.62,433.62c2,.65,59-.09,61.13-1.5.82-.52,1.2-8.83,1.37-18.88v-.32c0-2.07-5.26-36.81-5.26-36.81l-38.12.38,6.61,36.5,0,.62s-21.69,10-23.89,11.84S497.62,433,499.62,433.62Z" style="fill: rgb(201, 95, 80);"></path><path d="M499.61,433.62c1,.33,16.51.29,31.64,0,3-.06,6.07-.13,9-.21,10.79-.3,19.7-.74,20.53-1.28s1.2-8.6,1.36-18.46c0-.14,0-.28,0-.42s0-.22,0-.32h0l-36.73.07,0,.62s-21.69,10-23.88,11.83S497.62,433,499.61,433.62Z" style="fill:#a6a6a6"></path><path d="M500.24,431.4c9.6-.36,48.36-.9,57.88-.53.08,0,.08.06,0,.06-9.51.57-48.28.8-57.88.63C500,431.56,500,431.41,500.24,431.4Z" style="fill:#263238"></path><path d="M521.26,413.15c3.77-.76,8.4-.24,11.33,2.42.11.1,0,.26-.16.22a53.5,53.5,0,0,0-11.15-2.16A.24.24,0,0,1,521.26,413.15Z" style="fill:#263238"></path><path d="M518.56,414.83c3.77-.76,8.4-.24,11.32,2.42.11.1,0,.26-.16.22a54,54,0,0,0-11.14-2.17A.24.24,0,0,1,518.56,414.83Z" style="fill:#263238"></path><path d="M515.85,416.51c3.77-.76,8.4-.24,11.32,2.42.12.1,0,.26-.15.22A54.17,54.17,0,0,0,515.87,417,.24.24,0,0,1,515.85,416.51Z" style="fill:#263238"></path><path d="M524.6,413.12h38.73s-13-81.61-12.65-83.28c.17-.86,50.07-89.14,50.07-89.14H557s-40.53,63.14-46.09,79C506.84,331.3,524.6,413.12,524.6,413.12Z" style="fill:#263238"></path><path d="M523.66,405.6c2.34-.19,4.67-.38,7-.48s4.66-.13,7-.18c4.66-.1,9.32-.16,14-.22,1.33,0,2.66,0,4,0s2.68.14,4,0c.1,0,.1.15,0,.15-1.17,0-2.34.25-3.5.33s-2.33.2-3.5.28c-2.33.15-4.66.26-7,.36-4.66.2-9.32.25-14,.28-2.67,0-5.32-.19-8-.38A.1.1,0,0,1,523.66,405.6Z" style="fill:#455a64"></path><path d="M545.42,326.56a25.6,25.6,0,0,1,3.31-6.79q4.39-7.26,8.77-14.52,8.89-14.72,17.87-29.39c3-4.84,6-9.66,8.93-14.49,2.75-4.46,9-16.39,9.7-17.54,0-.09.19-.05.14,0-2,4.2-4.63,9.45-7.09,13.83-2.71,4.81-5.61,9.52-8.42,14.27C572.86,281.7,567,291.36,561.15,301q-4.42,7.33-8.87,14.65c-1.42,2.34-2.89,4.67-4.26,7a14.24,14.24,0,0,0-2.14,7.55,80.32,80.32,0,0,0,.9,8.33c.37,2.79.73,5.57,1.11,8.36q1.13,8.36,2.35,16.69,2.44,16.77,5.09,33.5c.22,1.39.45,2.77.67,4.16,0,.13-.18.18-.2.05-2-11.16-3.94-22.32-5.63-33.53s-3.23-22.45-4.72-33.69A20.39,20.39,0,0,1,545.42,326.56Z" style="fill:#455a64"></path><path d="M685.61,436.72c-2,.62-59-.7-61.11-2.13-.82-.53-1.11-8.84-1.17-18.9v-.31c0-2.07-15.1-36.89-15.1-36.89l37.24.76,14.62,36.57,0,.63s21.58,10.25,23.77,12.07S687.62,436.1,685.61,436.72Z" style="fill: rgb(201, 95, 80);"></path><path d="M685.61,436.72c-2,.62-59-.7-61.11-2.13-.82-.53-1.11-8.84-1.17-18.9v-.31s-2.55-7-2.56-7.27l36.77.65,2.55,7.06,0,.63s21.58,10.25,23.77,12.07S687.62,436.1,685.61,436.72Z" style="fill:#ebebeb"></path><path d="M685.61,436.72c-2,.62-59-.7-61.11-2.13-.82-.53-1.11-8.84-1.17-18.9v-.31l36.76.44,0,.63s21.58,10.25,23.77,12.07S687.62,436.1,685.61,436.72Z" style="fill:#a6a6a6"></path><path d="M685,434.49c-9.6-.46-48.35-1.4-57.88-1.12-.07,0-.07.05,0,.06,9.51.66,48.27,1.29,57.88,1.22C685.22,434.65,685.22,434.5,685,434.49Z" style="fill:#263238"></path><path d="M664.18,416c-3.76-.79-8.4-.32-11.35,2.31-.11.1,0,.26.16.22a53.4,53.4,0,0,1,11.16-2.05A.24.24,0,0,0,664.18,416Z" style="fill:#263238"></path><path d="M666.87,417.73c-3.76-.79-8.4-.32-11.35,2.3-.11.11,0,.27.16.23a52.76,52.76,0,0,1,11.16-2.05A.24.24,0,0,0,666.87,417.73Z" style="fill:#263238"></path><path d="M669.56,419.44c-3.76-.8-8.4-.32-11.35,2.3-.11.1,0,.26.16.23a53.42,53.42,0,0,1,11.16-2.06A.24.24,0,0,0,669.56,419.44Z" style="fill:#263238"></path><path d="M561.57,240.7s5.25,32,5.6,33c0,0,2,.93,5.47,2.55l42.49,140.06,47,.16L606.35,240.7Z" style="fill:#263238"></path><path d="M565.47,272.72a76.55,76.55,0,0,1,11.73,6.14.14.14,0,0,1-.13.24c-4-1.92-8-3.77-11.84-5.91A.26.26,0,0,1,565.47,272.72Z" style="fill:#455a64"></path><path d="M567,254.4c.64,3.83,1,7.71,1.43,11.57.11.92.22,1.85.32,2.77a5.42,5.42,0,0,0,.66,2.44c.83,1.29,2.32,1.89,3.67,2.48.16.07.1.32-.08.26a9,9,0,0,1-3.9-2.06c-1.23-1.3-1.19-3.27-1.38-4.95a106.42,106.42,0,0,1-.9-12.49A.09.09,0,0,1,567,254.4Z" style="fill:#455a64"></path><path d="M571.63,255.57c.14,2.76.44,5.52.67,8.27.12,1.35.21,2.71.3,4.07s.24,2.8.2,4.19a.09.09,0,0,1-.17,0c-.23-1.31-.26-2.67-.37-4s-.21-2.79-.28-4.18c-.16-2.79-.24-5.59-.49-8.37A.07.07,0,0,1,571.63,255.57Z" style="fill:#455a64"></path><path d="M577.64,282.13c3.26,7.94,38.06,121.77,38.44,122.76,0,.08-.1.13-.14.05-4.65-9.1-34.36-111.79-37.32-119.79l-1.11-3C577.48,282.11,577.61,282.06,577.64,282.13Z" style="fill:#455a64"></path><path d="M614.78,408.43c1.36-.19,2.77-.18,4.14-.28s2.76-.12,4.14-.15q4.14-.09,8.28-.13c5.48-.07,11-.09,16.44-.09,3.13,0,6.25.17,9.38.23.1,0,.1.15,0,.16-2.75.11-5.51.28-8.27.38s-5.52.12-8.28.16c-5.56.08-11.12.17-16.68.16-1.55,0-3.09,0-4.63-.06s-3,0-4.53-.22C614.67,408.58,614.7,408.44,614.78,408.43Z" style="fill:#455a64"></path><path d="M567.44,192.5c-9.35-6.64-23.45-22.79-26.24-29.16-3.58-8.19-9.89-36.47-7.05-39.77,1.57-1.82,22,.88,23.14,3.16s1.72,27.18,2,29.07,9.64,19.76,14.86,28.27C580.31,194,573.53,196.82,567.44,192.5Z" style="fill: rgb(201, 95, 80);"></path><path d="M534.48,130.29a8.84,8.84,0,0,1-1-5.43c.57-3,2.61-6.17,2-8-.91-2.87-3.68-7.48-2.59-8.52,2.23-2.15,5-.67,8.24,4.61.84,1.37,2.08,4.84,3.11,5,1.81.31,2.57-2.86,2.78-5.76.41-5.61-.13-13.83,3.58-14.89,1.4-.41,2.07,1.63,2.37,4.15.14-3.66.69-7.28,2.23-7.79a1.64,1.64,0,0,1,2,1A2.16,2.16,0,0,1,559,92.89c1.44-.24,2.45,1,3.14,2.85a1.19,1.19,0,0,1,1-.41c3.89.07,5.58,14.14,4.22,17.68a82.14,82.14,0,0,1-11.28,19.43C550.85,134,534.48,130.3,534.48,130.29Z" style="fill: rgb(201, 95, 80);"></path><path d="M552.45,117.79a17.63,17.63,0,0,0,1.78-7.55c0-3.07-.83-6.07-1.14-9.12,0-.08-.14-.06-.13,0,.22,1.48.29,3,.45,4.49s.36,2.92.42,4.38a17.72,17.72,0,0,1-1.42,7.77S552.44,117.82,552.45,117.79Z" style="fill:#263238"></path><path d="M557.39,118.72a43.45,43.45,0,0,0,2.35-8.6c.41-3.23-.3-6.46-1-9.61-.4-1.89-.83-3.77-1.31-5.64,0-.08-.15-.07-.13,0,.7,3.21,1.31,6.45,1.81,9.71a23.34,23.34,0,0,1-.33,9.08c-.41,1.69-1,3.36-1.48,5C557.34,118.73,557.38,118.75,557.39,118.72Z" style="fill:#263238"></path><path d="M562.44,118.48a22.44,22.44,0,0,0,2.21-7.75,39.59,39.59,0,0,0-1.1-9.82c-.39-1.74-.83-3.46-1.3-5.18,0-.07-.14,0-.13,0a91.18,91.18,0,0,1,2.15,11.7,18.08,18.08,0,0,1-.13,5.64,32.49,32.49,0,0,1-1.72,5.36S562.43,118.49,562.44,118.48Z" style="fill:#263238"></path><path d="M559.15,135l-25.85,5.47s5.48,20.25,7.71,25,20.12,25.15,27.09,28.81,11.58-.09,7.22-9.44-13.89-27.19-14.49-29.18S559.15,135,559.15,135Z" style="fill:#455a64"></path><path d="M573.77,192.14a9.68,9.68,0,0,0-1.62,1.52,9.77,9.77,0,0,0,1.9-1.14,9.25,9.25,0,0,0,1.61-1.52A10,10,0,0,0,573.77,192.14Zm-6-10.28a10.48,10.48,0,0,0-.6,4.35,10.48,10.48,0,0,0,.6-4.35Zm-25.66-26.09a9.61,9.61,0,0,0-1.51-1.62,8.87,8.87,0,0,0,1.14,1.9,9.19,9.19,0,0,0,1.51,1.61A10,10,0,0,0,542.13,155.77Zm-4.77-16.18-.49.1a9.07,9.07,0,0,0,1.5,1.6A8.77,8.77,0,0,0,537.36,139.59Zm23.31,36.33a9.61,9.61,0,0,0-1.51-1.62,8.87,8.87,0,0,0,1.14,1.9,9.19,9.19,0,0,0,1.51,1.61A10,10,0,0,0,560.67,175.92Zm-5.38-17.87a9.19,9.19,0,0,0-1.61,1.51,9.5,9.5,0,0,0,1.89-1.14,9.19,9.19,0,0,0,1.61-1.51A9.5,9.5,0,0,0,555.29,158.05Zm-4.55-21.29-.15.17.53-.25ZM563.43,165a9.59,9.59,0,0,0-2.21-.07,10.48,10.48,0,0,0,4.35.6A9.57,9.57,0,0,0,563.43,165Zm-17.88-19.44a9.59,9.59,0,0,0-2.21-.07,10.27,10.27,0,0,0,4.35.61A9.6,9.6,0,0,0,545.55,145.56Zm3,19.69a10.48,10.48,0,0,0-.6,4.35,10.48,10.48,0,0,0,.6-4.35Zm10.09-22.93a10.35,10.35,0,0,0-.61,4.36,10.79,10.79,0,0,0,.61-4.36Z" style="fill:#fff"></path><path d="M558.06,142.22c-3.65,1-18.74,4.34-22,4.85-.23,0-.3-.1-.07-.16A203.56,203.56,0,0,1,558,142.07.08.08,0,0,1,558.06,142.22Z" style="fill:#263238"></path><path d="M568.1,194.21c-5-2.62-15.57-13.84-22-21.73l25.15,4c1.55,3.06,3,6,4.08,8.33C579.68,194.12,575.08,197.88,568.1,194.21Z" style="fill:#263238"></path><path d="M609.16,245.12s-60.39,8.34-60.52,8.23c-.89-.71,2.24-65.27,4.64-70.81,2.57-5.94,10.57-9,15.07-6.52,11.29,6.31,25.61,32.08,29,40.08C603,229.27,608.78,241.52,609.16,245.12Z" style="fill:#455a64"></path><path d="M560.67,175.92l0,0a3.34,3.34,0,0,0-.44.17l.09.13a9.19,9.19,0,0,0,1.51,1.61A10,10,0,0,0,560.67,175.92Zm-1.44,63.5a10.35,10.35,0,0,0-.61,4.36,10.79,10.79,0,0,0,.61-4.36Zm21-40.36a10.35,10.35,0,0,0-.61,4.36,10.79,10.79,0,0,0,.61-4.36Zm-12.4-17.2a10.48,10.48,0,0,0-.6,4.35,10.48,10.48,0,0,0,.6-4.35Zm15.88,66.59a1.46,1.46,0,0,0-.07.19h.08A1.09,1.09,0,0,0,583.67,248.45ZM570.1,222a10.48,10.48,0,0,0-.6,4.35,10.48,10.48,0,0,0,.6-4.35Zm-16-18a10.55,10.55,0,0,0-.6,4.36,10.55,10.55,0,0,0,.6-4.36Zm40.82,21.72a9,9,0,0,0-.54,2.15,9.57,9.57,0,0,0-.07,2.21,9.52,9.52,0,0,0,.53-2.15A9.06,9.06,0,0,0,594.93,225.71Zm-10.53-32.4a6.79,6.79,0,0,0-.78,0,8,8,0,0,0,1,.32Zm-17.29,9a9.59,9.59,0,0,0-2.21-.07,10.27,10.27,0,0,0,4.35.61A9.6,9.6,0,0,0,567.11,202.29Zm17.95,19a9.59,9.59,0,0,0-2.21-.07,10.48,10.48,0,0,0,4.35.6A9.57,9.57,0,0,0,585.06,221.28Zm-33.83-3.44a12.43,12.43,0,0,0-1.38-.11c0,.1,0,.2,0,.3a12.72,12.72,0,0,0,1.34.27,9.59,9.59,0,0,0,2.21.07A9.52,9.52,0,0,0,551.23,217.84ZM588,242.38a9.59,9.59,0,0,0-2.21-.07,10.55,10.55,0,0,0,4.36.6A9.79,9.79,0,0,0,588,242.38Zm-18.72-5.92a9.59,9.59,0,0,0-2.21-.07,10.55,10.55,0,0,0,4.36.6A9.79,9.79,0,0,0,569.29,236.46Zm-18.72-1.8a14,14,0,0,0-1.59-.11,2.18,2.18,0,0,0,0,.25,11.55,11.55,0,0,0,1.53.32,9.06,9.06,0,0,0,2.21.07A9.57,9.57,0,0,0,550.57,234.66Zm23.2-42.52a9.68,9.68,0,0,0-1.62,1.52,9.77,9.77,0,0,0,1.9-1.14,9.25,9.25,0,0,0,1.61-1.52A10,10,0,0,0,573.77,192.14Zm21.06,24.08a9.19,9.19,0,0,0-1.61,1.51,9.5,9.5,0,0,0,1.89-1.14,9.19,9.19,0,0,0,1.61-1.51A9.5,9.5,0,0,0,594.83,216.22Zm-18.51-3.1a9.19,9.19,0,0,0-1.61,1.51,9.5,9.5,0,0,0,1.89-1.14,9.19,9.19,0,0,0,1.61-1.51A9.5,9.5,0,0,0,576.32,213.12Zm24.43,27.58a8.83,8.83,0,0,0-1.61,1.51,10.67,10.67,0,0,0,3.51-2.65A8.87,8.87,0,0,0,600.75,240.7Zm-27,4.44a8.83,8.83,0,0,0-1.61,1.51,10.67,10.67,0,0,0,3.51-2.65A8.87,8.87,0,0,0,573.76,245.14Zm-15.53-18.76a8.83,8.83,0,0,0-1.61,1.51,10.67,10.67,0,0,0,3.51-2.65A8.87,8.87,0,0,0,558.23,226.38Zm19-42.48a3.25,3.25,0,0,0-.23-.29s0,0,0,0q-.4-.47-.81-.9l0,0a5,5,0,0,0-.42-.37,9.3,9.3,0,0,0,1.14,1.9,9.19,9.19,0,0,0,1.51,1.61A9.5,9.5,0,0,0,577.21,183.9Zm11.32,23.15a9.61,9.61,0,0,0-1.51-1.62,9.3,9.3,0,0,0,1.14,1.9,9.19,9.19,0,0,0,1.51,1.61A9.5,9.5,0,0,0,588.53,207.05Zm15.84,25.08h0a7.87,7.87,0,0,0-1.08-1.08,8.87,8.87,0,0,0,1.14,1.9c.2.25.38.49.6.73Zm-39,17.87a7.1,7.1,0,0,0,.56,1.06l.44-.06A7.27,7.27,0,0,0,565.33,250Zm-14.54-1.68a9.61,9.61,0,0,0-1.51-1.62,8.87,8.87,0,0,0,1.14,1.9,9.19,9.19,0,0,0,1.51,1.61A10,10,0,0,0,550.79,248.32Zm31.44-15.66a9.61,9.61,0,0,0-1.51-1.62,8.87,8.87,0,0,0,1.14,1.9,9.19,9.19,0,0,0,1.51,1.61A10,10,0,0,0,582.23,232.66Zm-22.11-40a9.61,9.61,0,0,0-1.51-1.62,8.87,8.87,0,0,0,1.14,1.9,9.19,9.19,0,0,0,1.51,1.61A10,10,0,0,0,560.12,192.63Zm3.57,19.88a9.61,9.61,0,0,0-1.51-1.62,8.87,8.87,0,0,0,1.14,1.9,9.19,9.19,0,0,0,1.51,1.61A10,10,0,0,0,563.69,212.51Z" style="fill:#fff"></path><path d="M556.09,185.5c2.83.47,10.12-5.12,11.4-9.63.08-.31-1-3.12-2.16-6.59-.69-2.11-1.41-4.47-1.92-6.68l-13.06,6.52a36.3,36.3,0,0,1,3.27,8.16,5.12,5.12,0,0,1,.11.93.86.86,0,0,0,0,.15C553.86,180.14,552.83,185,556.09,185.5Z" style="fill: rgb(201, 95, 80);"></path><path d="M562.75,162.93c.2,3.1.26,13.21-7.56,15.18a8.58,8.58,0,0,1-1.45.26,1,1,0,0,1,0-.16,6.34,6.34,0,0,0-.11-.93,35.79,35.79,0,0,0-3.27-8.16Z" style="fill:#263238"></path><path d="M550.38,140.16s-5,.86-7,5.34-2,9.63-1.63,10S550.38,140.16,550.38,140.16Z" style="fill:#263238"></path><path d="M567.38,150.07c.38,5.25-5.46,18.82-9.67,21.18-6.1,3.42-14.48,2-17-5-2.42-6.75,5.5-24.3,10-26.28C557.49,137.05,566.83,142.32,567.38,150.07Z" style="fill: rgb(201, 95, 80);"></path><path d="M550.9,156.08s.05.07,0,.11c-.43.9-.78,2-.09,2.66,0,0,0,.07,0,.05C549.87,158.31,550.34,156.86,550.9,156.08Z" style="fill:#263238"></path><path d="M552.13,155.49c1.51.54.32,3.53-1.08,3S550.86,155,552.13,155.49Z" style="fill:#263238"></path><path d="M545.79,153.84s-.09,0-.1,0c-.34.93-.89,2-1.85,1.92a0,0,0,0,0,0,.06C544.91,156.13,545.62,154.78,545.79,153.84Z" style="fill:#263238"></path><path d="M545.35,152.54c-1.44-.71-2.75,2.23-1.41,2.88S546.56,153.13,545.35,152.54Z" style="fill:#263238"></path><path d="M554.56,153.13c-.44-.09-.84-.24-1.27-.37a2.11,2.11,0,0,1-1.22-.62.68.68,0,0,1,.06-.82,1.66,1.66,0,0,1,1.69-.27,2.44,2.44,0,0,1,1.48,1A.73.73,0,0,1,554.56,153.13Z" style="fill:#263238"></path><path d="M544.3,150.91a11.57,11.57,0,0,0,1,.82,2.17,2.17,0,0,0,1.21.64.67.67,0,0,0,.64-.53,1.66,1.66,0,0,0-.76-1.53,2.43,2.43,0,0,0-1.66-.64A.72.72,0,0,0,544.3,150.91Z" style="fill:#263238"></path><path d="M549.12,164.25a1.49,1.49,0,0,1-1,.23,2.54,2.54,0,0,1-.9-.63s-.06,0-.06,0a1.35,1.35,0,0,0,1,1,1.08,1.08,0,0,0,1.05-.53A.06.06,0,0,0,549.12,164.25Z" style="fill:#263238"></path><path d="M549.25,161.1a3.41,3.41,0,0,1-2.66.56,4.76,4.76,0,0,1-1.15-.4,2.25,2.25,0,0,1-.21-.12L545,161a.25.25,0,0,1-.1-.28h0l0-.09h0l0-.08c.26-.72.76-1.78.76-1.78-.31,0-1.87.1-1.7-.27a50.92,50.92,0,0,1,5-9,.09.09,0,0,1,.16.09c-1.25,2.94-3,5.64-4.3,8.58a5.54,5.54,0,0,1,1.67.14c.09.07-1,2-1.1,2.35a.06.06,0,0,0,0,0,4.69,4.69,0,0,0,3.66.29C549.29,161,549.34,161.05,549.25,161.1Z" style="fill:#263238"></path><path d="M546,161.06a4,4,0,0,0,1,1.76,1.87,1.87,0,0,0,1,.47c.81.1,1.1-.57,1.2-1.2a4.26,4.26,0,0,0,0-1A5.17,5.17,0,0,1,546,161.06Z" style="fill:#263238"></path><path d="M547,162.82a1.87,1.87,0,0,0,1,.47c.81.1,1.1-.57,1.2-1.2A1.87,1.87,0,0,0,547,162.82Z" style="fill:#ff9cbd"></path><path d="M562.78,162.22c-1.66-.12-1.64-5.27-1.46-7.18.17-1.68,1.54-6.69,1.6-7s-8.15,1.74-11.48-.82-4.53-6.89-4-8.49,6.77-3.77,10.89-2.41,7.58,8.6,7.58,8.6a20.41,20.41,0,0,1-.86-3.09,4.73,4.73,0,0,1,2.1,3.94s.39-2.53.6-2.5,1.47,2.82.42,4.15c0,0,1.56,2.94.91,5.25S564.74,162.36,562.78,162.22Z" style="fill:#263238"></path><path d="M549.07,145.36a13.58,13.58,0,0,0,3.06,2.65,9.09,9.09,0,0,0,4.3.92,13.85,13.85,0,0,0,4.37-.72c1.23-.41,2.43-1,3.7-1.32.32-.08.47.4.22.57a14.5,14.5,0,0,1-8.75,2.37,8.32,8.32,0,0,1-6.92-4.44S549.06,145.35,549.07,145.36Z" style="fill:#263238"></path><path d="M561.72,161.1s4.33-3.77,6.11-2.11-2.27,7.66-4.92,8a2.55,2.55,0,0,1-3-2.16Z" style="fill: rgb(201, 95, 80);"></path><path d="M566.63,160.68a0,0,0,0,1,0,.07c-1.87.26-3.16,1.62-4.2,3.1a1.4,1.4,0,0,1,2.13.14s0,.1-.07.08a1.55,1.55,0,0,0-1.8.11,6.89,6.89,0,0,0-1.14,1.15c-.12.13-.37,0-.27-.18l0,0C561.79,162.93,564.24,160.32,566.63,160.68Z" style="fill:#263238"></path><path d="M556.36,196.58c-12.1-2.36-35.64-12.78-39.31-15.48-7.69-5.67-23.33-33.43-22-37.87.74-2.45,21.76-3.24,23.91-1.54s11.44,22.5,12.58,24.19,24.88,17.71,30.09,22.27C571.06,196.41,564.23,198.12,556.36,196.58Z" style="fill: rgb(201, 95, 80);"></path><path d="M517.52,149.33s4.44-7.93,7.1-13.26c1.48-3,3.57-8.29,3.66-11,.14-4-1.85-20.87-5.95-20.48-3.71.36-.16,14.63-.16,14.63s-2.31-14.72-6.7-13.47,1.77,16.84,1.77,16.84-2.71-15.06-7-13.06c-3.27,1.52,1.51,16,1.51,16s-2.42-12.93-5.85-11.52c-3.78,1.57-.21,15.17-.21,15.17-8.1,5.06-11.35,8.61-10.67,15C495.1,145.2,517.52,149.33,517.52,149.33Z" style="fill: rgb(201, 95, 80);"></path><path d="M523.69,125.52c-.21-1.74-.41-3.5-.77-5.21s-.78-3.42-1.3-5.09A30.13,30.13,0,0,0,519,108.9a65.18,65.18,0,0,1,3.49,11.52c.36,1.71.8,3.41,1.17,5.12C523.64,125.58,523.7,125.56,523.69,125.52Z" style="fill:#263238"></path><path d="M517.53,126.94c-.36-2.21-.64-4.41-1.1-6.6s-1.21-5.22-1.81-7.37c0-.16-.31-.17-.27,0,.52,2.17,1.14,5.3,1.64,7.47s1.07,4.33,1.49,6.51C517.48,127,517.53,127,517.53,126.94Z" style="fill:#263238"></path><path d="M512.46,129.11a49.76,49.76,0,0,0-2.46-10c-.05-.16-.14,0-.09.12.88,3.3,1.59,5.88,2.43,9.87C512.35,129.19,512.46,129.18,512.46,129.11Z" style="fill:#263238"></path><path d="M497.49,153.16l27.45-2.82s5.71,13.22,6.85,14.8,26.87,18.54,32,22.8,4.24,12.17-6.8,10c-9.53-1.87-35.3-12.55-40.16-15.81S497.49,153.16,497.49,153.16Z" style="fill:#455a64"></path><path d="M560.12,192.63a9.61,9.61,0,0,0-1.51-1.62,8.87,8.87,0,0,0,1.14,1.9,9.19,9.19,0,0,0,1.51,1.61A10,10,0,0,0,560.12,192.63Zm-11-.48a9.19,9.19,0,0,0-1.61,1.51,9.5,9.5,0,0,0,1.89-1.14A9.19,9.19,0,0,0,551,191,9.5,9.5,0,0,0,549.13,192.15Zm1.18-10.86a9.59,9.59,0,0,0-2.21-.07,10.27,10.27,0,0,0,4.35.61A9.6,9.6,0,0,0,550.31,181.29Zm-9.8,5a10.55,10.55,0,0,0-.6,4.36,10.55,10.55,0,0,0,.6-4.36ZM506.14,156.7a9.61,9.61,0,0,0-1.51-1.62,8.87,8.87,0,0,0,1.14,1.9,9.19,9.19,0,0,0,1.51,1.61A10,10,0,0,0,506.14,156.7Zm28.41,13.81a9.61,9.61,0,0,0-1.51-1.62,9.3,9.3,0,0,0,1.14,1.9,9.19,9.19,0,0,0,1.51,1.61A9.5,9.5,0,0,0,534.55,170.51ZM522.34,174a9.19,9.19,0,0,0-1.61,1.51,9.5,9.5,0,0,0,1.89-1.14,9.19,9.19,0,0,0,1.61-1.51A9.5,9.5,0,0,0,522.34,174Zm18.51,3.1a9.19,9.19,0,0,0-1.61,1.51,9.5,9.5,0,0,0,1.89-1.14,9.19,9.19,0,0,0,1.61-1.51A9.5,9.5,0,0,0,540.85,177.11ZM519.79,153a9.68,9.68,0,0,0-1.62,1.52,9.77,9.77,0,0,0,1.9-1.14,9.25,9.25,0,0,0,1.61-1.52A10,10,0,0,0,519.79,153Zm9.89,29.47a9.59,9.59,0,0,0-2.21-.07,10.48,10.48,0,0,0,4.35.6A9.57,9.57,0,0,0,529.68,182.5Zm-15.8-17.26a9.59,9.59,0,0,0-2.21-.07,10.27,10.27,0,0,0,4.35.61A9.6,9.6,0,0,0,513.88,165.24Zm5.39,16.62a8.38,8.38,0,0,0-.41,1.44l.4.21A8.26,8.26,0,0,0,519.27,181.86ZM526.21,160a10.35,10.35,0,0,0-.61,4.36,10.79,10.79,0,0,0,.61-4.36Z" style="fill:#fff"></path><path d="M503.2,159.63c3.77-.29,19.14-2,22.43-2.61.23,0,.26-.19,0-.18a204.19,204.19,0,0,0-22.45,2.64A.08.08,0,0,0,503.2,159.63Z" style="fill:#263238"></path><path d="M562.17,200.52a47.11,47.11,0,0,1-6.61-2.83,56.59,56.59,0,0,1-6.21-3.6A63.11,63.11,0,0,1,555.9,197c1.06.55,2.12,1.1,3.16,1.68S561.14,199.9,562.17,200.52Z" style="fill:#263238"></path><path d="M555.5,197.24a9.43,9.43,0,0,1-2.26-.44,9.62,9.62,0,0,1-2.11-.93,9.44,9.44,0,0,1,2.26.45A9.86,9.86,0,0,1,555.5,197.24Z" style="fill:#263238"></path><path d="M563.79,187.94a16,16,0,0,1-3-2.17,15.59,15.59,0,0,1-2.46-2.72,16,16,0,0,1,3,2.17A15.59,15.59,0,0,1,563.79,187.94Z" style="fill:#263238"></path></g></svg>